<svg xmlns="http://www.w3.org/2000/svg" xmlns:xlink="http://www.w3.org/1999/xlink" viewBox="0 0 205 223" width="205" height="223" preserveAspectRatio="xMidYMid meet" style="width: 100%; height: 100%; transform: translate3d(0px, 0px, 0px);ontent-visibility: visible;"><defs><clipPath id="__lottie_element_3179"><rect width="205" height="223" x="0" y="0"></rect></clipPath><linearGradient id="__lottie_element_3185" spreadMethod="pad" gradientUnits="userSpaceOnUse" x1="-104.70700073242188" y1="-133.72999572753906" x2="-39.09600067138672" y2="-45.446998596191406"><stop offset="0%" stop-color="rgb(171,166,203)" stop-opacity="0"></stop><stop offset="25%" stop-color="rgb(171,166,203)" stop-opacity="0.20000000298023224"></stop><stop offset="50%" stop-color="rgb(171,166,203)" stop-opacity="0.4000000059604645"></stop><stop offset="75%" stop-color="rgb(171,166,203)" stop-opacity="1"></stop><stop offset="100%" stop-color="rgb(171,166,203)" stop-opacity="1"></stop></linearGradient><linearGradient id="__lottie_element_3186" spreadMethod="pad" gradientUnits="userSpaceOnUse" x1="-41.012001037597656" y1="-39.06100082397461" x2="-70" y2="-135.68899536132812"><stop offset="0%" stop-color="rgb(232,203,197)" stop-opacity="0"></stop><stop offset="25%" stop-color="rgb(232,203,197)" stop-opacity="0.20000000298023224"></stop><stop offset="50%" stop-color="rgb(232,203,197)" stop-opacity="0.4000000059604645"></stop><stop offset="75%" stop-color="rgb(232,203,197)" stop-opacity="1"></stop><stop offset="100%" stop-color="rgb(232,203,197)" stop-opacity="1"></stop></linearGradient></defs><g clip-path="url(#__lottie_element_3179)"><g transform="matrix(0.9925461411476135,0.12186934053897858,-0.12186934053897858,0.9925461411476135,79.46784973144531,29.657718658447266)" opacity="1" style="display: block;"><g opacity="1" transform="matrix(1,0,0,1,58.41400146484375,71.12300109863281)"><path fill="rgb(246,194,218)" fill-opacity="1" d=" M-13.880000114440918,-70.8740005493164 C-58.16400146484375,-31.33799934387207 -45.77000045776367,24.023000717163086 -35.7859992980957,37.095001220703125 C0,70.8740005493164 58.165000915527344,13.27299976348877 -0.13899999856948853,-47.242000579833984 C-16.926000595092773,-65.60299682617188 -12.725000381469727,-66.7770004272461 -13.880000114440918,-70.8740005493164z"></path></g></g><g transform="matrix(0.9925461411476135,0.12186934053897858,-0.12186934053897858,0.9925461411476135,132.35044860839844,43.93186950683594)" opacity="1" style="display: block;"><g opacity="1" transform="matrix(1,0,0,1,40.4379997253418,47.981998443603516)"><path fill="rgb(225,153,188)" fill-opacity="1" d=" M-12.265000343322754,-3.619999885559082 C15.659000396728516,-41.584999084472656 23.764999389648438,-41.29800033569336 27.371999740600586,-47.731998443603516 C26.552000045776367,-39.952999114990234 32.50600051879883,-25.243000030517578 33.95600128173828,-20.152000427246094 C40.1879997253418,1.7380000352859497 32.02000045776367,30.19099998474121 13.576000213623047,38.96200180053711 C-4.868000030517578,47.733001708984375 -40.1879997253418,34.345001220703125 -12.265000343322754,-3.619999885559082z"></path></g></g><g transform="matrix(0.9925461411476135,0.12186934053897858,-0.12186934053897858,0.9925461411476135,80.49728393554688,1.038848876953125)" opacity="1" style="display: block;"><g opacity="1" transform="matrix(1,0,0,1,69.06500244140625,82.2229995727539)"><path fill="rgb(249,223,236)" fill-opacity="1" d=" M52.141998291015625,27.000999450683594 C60.6349983215332,-10.982999801635742 41.972999572753906,-47.83300018310547 -9.743000030517578,-81.9729995727539 C-9.843999862670898,-79.40799713134766 -9.361000061035156,-77.36000061035156 -8.843999862670898,-75.16999816894531 C-6.828999996185303,-66.63400268554688 -4.306000232696533,-55.95000076293945 -33.95399856567383,-4.133999824523926 C-68.81500244140625,56.79199981689453 -30.195999145507812,81.9729995727539 12.666999816894531,78.00900268554688 C41.50899887084961,75.34200286865234 60.90599822998047,36.85200119018555 63.551998138427734,32.301998138427734 C66.06400299072266,27.982999801635742 67.23600006103516,27.01300048828125 68.35900115966797,26.08300018310547 C68.51100158691406,25.957000732421875 68.66300201416016,25.832000732421875 68.81600189208984,25.698999404907227 C61.91400146484375,24.718000411987305 60.058998107910156,25.263999938964844 57.74100112915039,25.945999145507812 C56.393001556396484,26.343000411987305 54.88800048828125,26.785999298095703 52.141998291015625,27.000999450683594z"></path></g></g><g transform="matrix(1,0,0,1,33.67500686645508,156.072998046875)" opacity="1" style="display: block;"><g opacity="1" transform="matrix(1,0,0,1,14.854000091552734,20.39699935913086)"><path fill="rgb(171,166,203)" fill-opacity="1" d=" M14.163000106811523,-4.421000003814697 C13.722000122070312,7.429999828338623 7.306000232696533,20.14699935913086 -0.515999972820282,19.812000274658203 C-8.338000297546387,19.47800064086914 -14.604000091552734,6.2170000076293945 -14.163000106811523,-5.632999897003174 C-13.722000122070312,-17.482999801635742 -6.466000080108643,-20.14699935913086 1.3559999465942383,-19.812000274658203 C9.178000450134277,-19.476999282836914 14.604000091552734,-16.270999908447266 14.163000106811523,-4.421000003814697z"></path></g></g><g transform="matrix(1,0,0,1,1.7900066375732422,112.0830078125)" opacity="1" style="display: block;"><g opacity="1" transform="matrix(1,0,0,1,21.599000930786133,18.118999481201172)"><path fill="rgb(171,166,203)" fill-opacity="1" d=" M-6.873000144958496,10.812000274658203 C-16.566999435424805,4.239999771118164 -21.349000930786133,-5.927000045776367 -17.55299949645996,-11.89799976348877 C-13.756999969482422,-17.868999481201172 -2.821000099182129,-17.382999420166016 6.873000144958496,-10.812000274658203 C16.566999435424805,-4.239999771118164 21.349000930786133,5.927000045776367 17.55299949645996,11.89799976348877 C13.756999969482422,17.868999481201172 2.821000099182129,17.382999420166016 -6.873000144958496,10.812000274658203z"></path></g></g><g transform="matrix(1,0,0,1,37.413002014160156,34.98900604248047)" opacity="1" style="display: block;"><g opacity="1" transform="matrix(1,0,0,1,11.98799991607666,17.899999618530273)"><path fill="rgb(171,166,203)" fill-opacity="1" d=" M-1.9240000247955322,-17.214000701904297 C6.264999866485596,-17.649999618530273 11.519000053405762,-5.906000137329102 11.628000259399414,3.63100004196167 C11.73799991607666,13.168000221252441 -1.1050000190734863,17.649999618530273 -6.421999931335449,10.973999977111816 C-11.73900032043457,4.297999858856201 -10.11299991607666,-16.777000427246094 -1.9240000247955322,-17.214000701904297z"></path></g></g><g transform="matrix(1,0,0,1,14.185005187988281,30.46600341796875)" opacity="1" style="display: block;"><g opacity="1" transform="matrix(1,0,0,1,134.3459930419922,171.29400634765625)"><path fill="rgb(172,207,208)" fill-opacity="1" d=" M-119.75900268554688,-109.20099639892578 C-133.8419952392578,-70.2249984741211 -121.76699829101562,-29.89699935913086 -92.78900146484375,-19.125999450683594 C-63.81100082397461,-8.354999542236328 -19.235000610351562,-13.26099967956543 -14.821000099182129,-70.19599914550781 C-0.25099998712539673,-110.5770034790039 -12.814000129699707,-149.5 -41.79100036621094,-160.27099609375 C-46.64099884033203,-162.07400512695312 -51.6619987487793,-162.9340057373047 -56.71799850463867,-162.93499755859375 C-81.875,-162.93800354003906 -108.03299713134766,-141.65499877929688 -119.75900268554688,-109.20099639892578z"></path></g><g opacity="1" transform="matrix(1,0,0,1,134.33399963378906,171.2899932861328)"><path fill="url(#__lottie_element_3185)" fill-opacity="1" d=" M-119.75900268554688,-109.20099639892578 C-133.8419952392578,-70.2249984741211 -121.76699829101562,-29.89699935913086 -92.78900146484375,-19.125999450683594 C-63.81100082397461,-8.354999542236328 -19.235000610351562,-13.26099967956543 -14.821000099182129,-70.19599914550781 C-0.25099998712539673,-110.5770034790039 -12.814000129699707,-149.5 -41.79100036621094,-160.27099609375 C-46.64099884033203,-162.07400512695312 -51.6619987487793,-162.9340057373047 -56.71799850463867,-162.93499755859375 C-81.875,-162.93800354003906 -108.03299713134766,-141.65499877929688 -119.75900268554688,-109.20099639892578z"></path></g><g opacity="1" transform="matrix(1,0,0,1,134.33399963378906,171.2899932861328)"><path fill="url(#__lottie_element_3186)" fill-opacity="1" d=" M-119.75900268554688,-109.20099639892578 C-133.8419952392578,-70.2249984741211 -121.76699829101562,-29.89699935913086 -92.78900146484375,-19.125999450683594 C-63.81100082397461,-8.354999542236328 -19.235000610351562,-13.26099967956543 -14.821000099182129,-70.19599914550781 C-0.25099998712539673,-110.5770034790039 -12.814000129699707,-149.5 -41.79100036621094,-160.27099609375 C-46.64099884033203,-162.07400512695312 -51.6619987487793,-162.9340057373047 -56.71799850463867,-162.93499755859375 C-81.875,-162.93800354003906 -108.03299713134766,-141.65499877929688 -119.75900268554688,-109.20099639892578z"></path></g></g><g transform="matrix(1,0,0,1,100.02300262451172,49.38500213623047)" opacity="1" style="display: block;"><g opacity="1" transform="matrix(1,0,0,1,20.06399917602539,20.233999252319336)"><path fill="rgb(171,166,203)" fill-opacity="1" d=" M12.258000373840332,-14.467000007629395 C4.703000068664551,-19.983999252319336 -7.670000076293945,-11.465999603271484 -13.741999626159668,-1.9709999561309814 C-19.81399917602539,7.52400016784668 -10.340999603271484,19.983999252319336 -1.0800000429153442,16.58799934387207 C8.180999755859375,13.190999984741211 19.81399917602539,-8.949999809265137 12.258000373840332,-14.467000007629395z"></path></g><g opacity="1" transform="matrix(1,0,0,1,20.025999069213867,20.783000946044922)"><path fill="rgb(42,47,92)" fill-opacity="1" d=" M-2.2679998874664307,-7.446000099182129 C1.0130000114440918,-8.746999740600586 5.008999824523926,-8.697999954223633 7.684000015258789,-8.260000228881836 C7.843999862670898,-8.234000205993652 7.952000141143799,-8.081999778747559 7.926000118255615,-7.919000148773193 C7.900000095367432,-7.756999969482422 7.749000072479248,-7.645999908447266 7.590000152587891,-7.671999931335449 C4.9720001220703125,-8.100000381469727 1.0920000076293945,-8.138999938964844 -2.056999921798706,-6.890999794006348 C-3.625999927520752,-6.26800012588501 -5,-5.331999778747559 -5.952000141143799,-3.9779999256134033 C-6.9019999504089355,-2.627000093460083 -7.448999881744385,-0.8379999995231628 -7.327000141143799,1.5260000228881836 C-7.176000118255615,4.479000091552734 -6.072999954223633,6.242000102996826 -4.672999858856201,7.14900016784668 C-3.2639999389648438,8.062999725341797 -1.5010000467300415,8.142000198364258 0.023000000044703484,7.619999885559082 C1.5509999990463257,7.0960001945495605 2.7899999618530273,5.986999988555908 3.197999954223633,4.584000110626221 C3.5999999046325684,3.200000047683716 3.2170000076293945,1.4359999895095825 1.3140000104904175,-0.46700000762939453 C1.1990000009536743,-0.5820000171661377 1.1979999542236328,-0.7699999809265137 1.3109999895095825,-0.8880000114440918 C1.4240000247955322,-1.0049999952316284 1.6080000400543213,-1.0069999694824219 1.7230000495910645,-0.8920000195503235 C3.7300000190734863,1.1139999628067017 4.238999843597412,3.0959999561309814 3.757999897003174,4.752999782562256 C3.2820000648498535,6.389999866485596 1.8639999628067017,7.617000102996826 0.20800000429153442,8.1850004196167 C-1.4520000219345093,8.753000259399414 -3.4019999504089355,8.678999900817871 -4.986000061035156,7.6519999504089355 C-6.580999851226807,6.61899995803833 -7.751999855041504,4.656000137329102 -7.910999774932861,1.5570000410079956 C-8.038999557495117,-0.9210000038146973 -7.465000152587891,-2.8489999771118164 -6.427000045776367,-4.323999881744385 C-5.392000198364258,-5.796000003814697 -3.9130001068115234,-6.794000148773193 -2.2679998874664307,-7.446000099182129z"></path></g></g><g transform="matrix(1,0,0,1,106.69000244140625,122.24800872802734)" opacity="1" style="display: block;"><g opacity="1" transform="matrix(1,0,0,1,20.177000045776367,19.253999710083008)"><path fill="rgb(172,207,208)" fill-opacity="1" d=" M15.418000221252441,13.949000358581543 C10.907999992370605,19.003999710083008 0.3479999899864197,16.856000900268555 -8.166999816894531,9.152000427246094 C-16.680999755859375,1.4479999542236328 -19.927000045776367,-8.895000457763672 -15.416999816894531,-13.949000358581543 C-10.906999588012695,-19.003999710083008 -0.3490000069141388,-16.85700035095215 8.164999961853027,-9.152999877929688 C16.68000030517578,-1.4490000009536743 19.92799949645996,8.894000053405762 15.418000221252441,13.949000358581543z"></path></g></g><g transform="matrix(1,0,0,1,74.68600463867188,153.25900268554688)" opacity="1" style="display: block;"><g opacity="1" transform="matrix(1,0,0,1,23.729000091552734,24.069000244140625)"><path fill="rgb(172,207,208)" fill-opacity="1" d=" M7.63700008392334,-13.397000312805176 C17.340999603271484,-2.9749999046325684 23.479000091552734,12.664999961853027 17.56599998474121,18.242000579833984 C11.652000427246094,23.819000244140625 -4.072000026702881,17.222000122070312 -13.776000022888184,6.798999786376953 C-23.479999542236328,-3.622999906539917 -20.510000228881836,-11.329000473022461 -14.597000122070312,-16.9060001373291 C-8.684000015258789,-22.482999801635742 -2.066999912261963,-23.819000244140625 7.63700008392334,-13.397000312805176z"></path></g></g><g transform="matrix(1,0,0,1,13.761005401611328,90.25900268554688)" opacity="1" style="display: block;"><g opacity="1" transform="matrix(1,0,0,1,37.46799850463867,23.989999771118164)"><path fill="rgb(172,207,208)" fill-opacity="1" d=" M34.84299850463867,12.329000473022461 C32.46799850463867,23.243000030517578 16,23.739999771118164 -3.243000030517578,19.43199920654297 C-22.486000061035156,15.12399959564209 -37.21799850463867,7.642000198364258 -34.84199905395508,-3.2720000743865967 C-32.46699905395508,-14.185999870300293 -14.027999877929688,-23.739999771118164 5.215000152587891,-19.43199920654297 C24.45800018310547,-15.12399959564209 37.21799850463867,1.4149999618530273 34.84299850463867,12.329000473022461z"></path></g></g><g transform="matrix(1,0,0,1,34.31900405883789,81.27200317382812)" opacity="1" style="display: block;"><g opacity="1" transform="matrix(1,0,0,1,3.065000057220459,4.324999809265137)"><path fill="rgb(42,47,92)" fill-opacity="1" d=" M2.447000026702881,0.4090000092983246 C2.078000068664551,2.515000104904175 0.9620000123977661,4.074999809265137 -0.4880000054836273,3.812999963760376 C-1.937999963760376,3.552000045776367 -2.815999984741211,1.6319999694824219 -2.447000026702881,-0.4740000069141388 C-2.0769999027252197,-2.5799999237060547 -0.6019999980926514,-4.073999881744385 0.8479999899864197,-3.812000036239624 C2.2990000247955322,-3.5510001182556152 2.815999984741211,-1.6970000267028809 2.447000026702881,0.4090000092983246z"></path></g><g opacity="1" transform="matrix(1,0,0,1,51.612998962402344,17.864999771118164)"><path fill="rgb(42,47,92)" fill-opacity="1" d=" M2.447000026702881,0.4090000092983246 C2.078000068664551,2.515000104904175 0.9620000123977661,4.073999881744385 -0.4880000054836273,3.812000036239624 C-1.937999963760376,3.5510001182556152 -2.815999984741211,1.6319999694824219 -2.447000026702881,-0.4740000069141388 C-2.078000068664551,-2.5799999237060547 -0.6019999980926514,-4.073999881744385 0.8479999899864197,-3.812000036239624 C2.2980000972747803,-3.5510001182556152 2.815999984741211,-1.6970000267028809 2.447000026702881,0.4090000092983246z"></path></g></g><g transform="matrix(1,0,0,1,51.78000259399414,14.981002807617188)" opacity="1" style="display: block;"><g opacity="1" transform="matrix(1,0,0,1,17.049999237060547,30.132999420166016)"><path fill="rgb(249,223,236)" fill-opacity="1" d=" M-15.427000045776367,12.229000091552734 C-15.427000045776367,12.229000091552734 -12.937999725341797,-28.18000030517578 -12.937999725341797,-28.18000030517578 C-12.859000205993652,-29.459999084472656 -11.201000213623047,-29.882999420166016 -10.505000114440918,-28.801000595092773 C-10.505000114440918,-28.801000595092773 11.418000221252441,5.311999797821045 11.418000221252441,5.311999797821045 C12.569999694824219,6.8979997634887695 13.418999671936035,8.73799991607666 13.86299991607666,10.765999794006348 C15.595999717712402,18.684999465942383 10.501999855041504,26.481000900268555 2.4830000400543213,28.18199920654297 C-5.534999847412109,29.881999969482422 -13.440999984741211,24.84000015258789 -15.175000190734863,16.92099952697754 C-15.522000312805176,15.336000442504883 -15.595999717712402,13.756999969482422 -15.427000045776367,12.229000091552734z"></path></g><g opacity="1" transform="matrix(1,0,0,1,10.574999809265137,19.136999130249023)"><path fill="rgb(246,194,218)" fill-opacity="1" d=" M-7.8470001220703125,5.940999984741211 C-7.8470001220703125,5.940999984741211 -7.252999782562256,-3.615999937057495 -7.252999782562256,-3.615999937057495 C-2.9779999256134033,-3.427000045776367 0.5139999985694885,-4.673999786376953 3.378000020980835,-6.3379998207092285 C3.378000020980835,-6.3379998207092285 7.8470001220703125,0.5699999928474426 7.8470001220703125,0.5699999928474426 C4.034999847412109,4.495999813079834 -2.1679999828338623,6.3379998207092285 -7.8470001220703125,5.940999984741211z"></path></g><g opacity="1" transform="matrix(1,0,0,1,15.204999923706055,42.724998474121094)"><path fill="rgb(246,194,218)" fill-opacity="1" d=" M-12.420999526977539,7.14300012588501 C-14.954999923706055,2.99399995803833 -13.359000205993652,-4.499000072479248 -13.359000205993652,-4.499000072479248 C-1.5959999561309814,-0.7910000085830688 6.145999908447266,-5.932000160217285 11.321000099182129,-10.21399974822998 C11.321000099182129,-10.21399974822998 14.253999710083008,-6.118000030517578 14.954999923706055,-4.124000072479248 C11.569000244140625,6.197000026702881 -2.444999933242798,10.21399974822998 -12.420999526977539,7.14300012588501z"></path></g></g></g></svg>